<?xml version="1.0" encoding="UTF-8" standalone="no"?>
<!-- Created with Inkscape (http://www.inkscape.org/) -->

<svg width="64" height="64" viewBox="0 0 4.4000015 4.3999939" version="1.1" id="svg5"
   inkscape:version="1.2.2 (b0a8486541, 2022-12-01)" sodipodi:docname="logo-blog.svg"
   inkscape:export-filename="logo-blog.png" inkscape:export-xdpi="2309.0898" inkscape:export-ydpi="2309.0898"
   xmlns:inkscape="http://www.inkscape.org/namespaces/inkscape"
   xmlns:sodipodi="http://sodipodi.sourceforge.net/DTD/sodipodi-0.dtd" xmlns="http://www.w3.org/2000/svg"
   xmlns:svg="http://www.w3.org/2000/svg">
   <sodipodi:namedview id="namedview7" pagecolor="#ffffff" bordercolor="#000000" borderopacity="0.25"
      inkscape:showpageshadow="2" inkscape:pageopacity="0.0" inkscape:pagecheckerboard="0" inkscape:deskcolor="#d1d1d1"
      inkscape:document-units="mm" showgrid="false" inkscape:zoom="33.340839" inkscape:cx="232.17772"
      inkscape:cy="486.56545" inkscape:window-width="1920" inkscape:window-height="1008" inkscape:window-x="0"
      inkscape:window-y="0" inkscape:window-maximized="1" inkscape:current-layer="g404" />
   <defs id="defs2" />
   <g inkscape:label="Layer 1" inkscape:groupmode="layer" id="layer1" transform="translate(-59.783594,-126.38008)">
      <g id="g404" transform="translate(-2.380714,-0.20632854)" style="stroke-width:2.2;stroke-dasharray:none">
         <rect
            style="fill:#5b6eff;fill-opacity:1;stroke:none;stroke-width:0.088465;stroke-dasharray:none;stroke-opacity:1"
            id="rect1325" width="4.4000001" height="4.4000001" x="62.164307" y="126.5864" />
         <g id="g1271"
            style="fill:#ffffff;fill-opacity:1;stroke:#ffffff;stroke-width:0.0860525;stroke-dasharray:none;stroke-opacity:1"
            transform="matrix(1.1620807,0,0,1.1620807,-10.363178,-20.87882)">
            <g aria-label="T" id="text236"
               style="font-size:3.175px;font-family:'Little Days';-inkscape-font-specification:'Little Days';fill:#ffffff;fill-opacity:1;stroke:#ffffff;stroke-width:0.0860525;stroke-dasharray:none;stroke-opacity:1">
               <path
                  d="m 63.399739,129.58538 q 0.320675,-0.1143 0.47625,-0.3556 0.15875,-0.2413 0.282575,-0.51435 0.0032,-0.01 0.0063,-0.019 0.0063,-0.01 0.0095,-0.019 0.111125,-0.23812 0.24765,-0.46037 0.1397,-0.22543 0.3937,-0.36195 -0.0063,0.003 -0.0127,0.01 -0.0032,0.006 -0.0095,0.0127 -0.0032,0.003 -0.0095,0.01 -0.0032,0.003 -0.0095,0.01 -0.01587,0.019 -0.0381,0.0381 -0.01905,0.0159 -0.04762,0.0222 -0.127,0.1397 -0.20955,0.30162 -0.07938,0.16193 -0.149225,0.3302 -0.0064,0.0127 -0.0127,0.0254 -0.0032,0.0127 -0.0095,0.0254 -0.10795,0.26035 -0.24765,0.49848 -0.1397,0.23812 -0.434975,0.381 -0.09842,0.0572 -0.212725,0.0889 -0.111125,0.0318 -0.2286,0.0381 -0.0127,0 -0.0254,0 -0.0095,0 -0.02222,0 -0.1143,0 -0.225425,-0.0286 -0.111125,-0.0286 -0.206375,-0.0857 -0.0254,-0.0317 -0.04762,-0.0667 -0.01905,-0.0381 -0.01905,-0.0794 0,-0.0159 0.0032,-0.0286 0.0063,-0.0159 0.0095,-0.0286 0.0127,-0.0222 0.03493,-0.0349 0.02222,-0.0159 0.04763,-0.0222 0.0063,0 0.01587,0 0.0095,-0.003 0.01588,-0.003 0.0032,0 0.0064,0 0.0032,0 0.0063,0 0,0 0.0032,0.003 0.0032,0 0.0063,0 l 0.02858,0.0254 q -0.0032,0 -0.0063,0.003 0,0 -0.0032,0.003 -0.01905,0.0159 -0.0381,0.0413 -0.01905,0.0254 -0.01905,0.0572 0,0.006 0,0.0159 0.0032,0.006 0.0064,0.0127 0.0889,0.0984 0.200025,0.13652 0.1143,0.0381 0.238125,0.0381 0.0508,0 0.1016,-0.003 0.05398,-0.006 0.104775,-0.0159 z m 1.5748,-1.8542 q 0.0254,0 0.0508,0.003 0.0254,0 0.0508,0.003 0.0127,0 0.0254,0 0.0127,0 0.0254,0 0.04128,0 0.08255,0 0.04127,-0.003 0.08255,-0.006 0.08255,-0.01 0.1651,-0.0254 0.08255,-0.0191 0.155575,-0.0444 0,0.003 0,0.006 0,0 0,0.006 0,0.0476 -0.03493,0.0794 -0.03493,0.0318 -0.07937,0.0381 -0.136525,0.0254 -0.2794,0.0349 -0.1397,0.01 -0.2794,0.01 -0.13335,0 -0.269875,-0.006 -0.13335,-0.006 -0.263525,-0.0159 -0.13335,-0.006 -0.263525,-0.0127 -0.130175,-0.006 -0.26035,-0.006 -0.05398,0 -0.10795,0.003 -0.05398,0 -0.10795,0.003 -0.1778,0.0222 -0.3302,0.127 -0.1524,0.1016 -0.2413,0.2667 -0.0127,0.0318 -0.01905,0.0635 -0.0063,0.0286 -0.0063,0.054 0,0.0349 0.0095,0.0667 0.0095,0.0317 0.0254,0.0635 0.0127,0.0254 0.02857,0.0508 0.01905,0.0254 0.03493,0.054 0.05398,0.0508 0.123825,0.073 0.07303,0.0222 0.149225,0.0222 0.0127,0 0.0254,0 0.01588,0 0.02857,-0.003 0.02858,-0.003 0.05398,-0.006 0.02858,-0.006 0.05398,-0.0127 0.104775,-0.0254 0.193675,-0.11112 0.0889,-0.0889 0.111125,-0.19368 0,0 0,0 0,-0.003 0,-0.006 0,-0.003 0,-0.003 0,-0.003 0,-0.003 0,-0.0603 -0.0254,-0.11112 -0.02222,-0.054 -0.08573,-0.073 -0.0032,0 -0.0063,0 -0.0032,0 -0.0063,-0.003 -0.0032,0 -0.0064,0 -0.0032,0 -0.0063,0 -0.03175,0.003 -0.0635,0.0159 -0.02858,0.0127 -0.05715,0.0286 -0.0095,0.01 -0.02223,0.0159 -0.0127,0.006 -0.02222,0.0127 0.0127,-0.0317 0.04445,-0.054 0.03175,-0.0222 0.0635,-0.0445 0.0032,0 0.0032,0 0.0032,-0.003 0.0063,-0.003 0.0095,-0.006 0.01905,-0.0127 0.0127,-0.006 0.02223,-0.0127 0.0063,0 0.0095,0 0.0032,0 0.0095,0 0.0032,0 0.0063,0 0.0063,0 0.0095,0 0.05715,0 0.104775,0.019 0.0508,0.0159 0.07303,0.0635 0.0032,0.0254 0.0032,0.0508 0.0032,0.0222 0.0032,0.0445 0,0.0572 -0.01588,0.10795 -0.01588,0.0476 -0.06032,0.0953 -0.10795,0.10795 -0.24765,0.1778 -0.1397,0.0667 -0.288925,0.0667 -0.06032,0 -0.12065,-0.0127 -0.05715,-0.0127 -0.1143,-0.0381 -0.06033,-0.0349 -0.1016,-0.0889 -0.0381,-0.0571 -0.06032,-0.11748 0,-0.003 -0.0032,-0.006 0,-0.006 -0.0032,-0.0127 0,-0.006 0,-0.01 0,-0.006 0,-0.01 -0.0032,-0.006 -0.0032,-0.01 0,-0.006 0,-0.01 0.0032,-0.14605 0.09525,-0.26035 0.09207,-0.11747 0.219075,-0.18732 0.23495,-0.1143 0.4699,-0.14605 0.238125,-0.0317 0.479425,-0.0317 0.06668,0 0.13335,0.003 0.06985,0 0.1397,0.003 0.08572,0 0.17145,0.003 0.0889,0 0.1778,0 0.0127,0 0.0254,0 0.0127,0 0.0254,0 0.0095,0 0.02222,0 0.0127,0 0.0254,0 l 0.0254,-0.0254 z"
                  style="font-family:AdineKirnberg-Script;-inkscape-font-specification:AdineKirnberg-Script;fill:#ffffff;fill-opacity:1;stroke:#ffffff;stroke-width:0.0860525;stroke-dasharray:none;stroke-opacity:1"
                  id="path406" />
            </g>
            <g aria-label="Q" transform="rotate(167.66951)" id="text344"
               style="font-size:3.175px;font-family:AdineKirnberg-Script;-inkscape-font-specification:AdineKirnberg-Script;fill:#ffffff;fill-opacity:1;stroke:#ffffff;stroke-width:0.0860525;stroke-dasharray:none;stroke-opacity:1">
               <path
                  d="m -36.405512,-140.35212 q 0.127,-0.1016 0.263525,-0.18098 0.136525,-0.0825 0.2921,-0.12065 -0.415925,0.18415 -0.714375,0.5715 -0.295275,0.38735 -0.320675,0.8509 0.0032,0.0159 0.0063,0.0349 0.0064,0.0159 0.0095,0.0317 0.0032,0.01 0.0032,0.019 0.0032,0.006 0.0063,0.0127 0.01905,0.0857 0.05398,0.1651 0.03493,0.0762 0.12065,0.11747 0.03492,0.019 0.0762,0.0286 0.04445,0.006 0.0889,0.006 0.0635,0 0.127,-0.0159 0.0635,-0.0159 0.117475,-0.0413 -0.03175,-0.054 -0.07937,-0.10478 -0.04445,-0.054 -0.10795,-0.0857 -0.0127,-0.006 -0.0254,-0.006 -0.0095,-0.003 -0.02222,-0.003 -0.02858,0 -0.05715,0.01 -0.0254,0.01 -0.04445,0.0254 -0.0127,0.006 -0.01905,0.019 -0.0063,0.01 -0.0095,0.019 0,0.003 -0.0032,0.006 0,0 0,0.003 -0.0064,0.0159 -0.01588,0.0286 -0.0063,0.01 -0.0254,0.0127 -0.0032,-0.003 -0.0064,-0.006 0,-0.006 0,-0.01 0,-0.003 0,-0.006 0,-0.006 0,-0.01 0,-0.0317 0.02222,-0.0571 0.02223,-0.0286 0.04763,-0.0508 0.0063,-0.006 0.0127,-0.01 0.0095,-0.006 0.01587,-0.01 0.02858,-0.0127 0.06033,-0.019 0.03492,-0.006 0.06667,-0.006 0.0508,0.003 0.09842,0.0191 0.04763,0.0127 0.07937,0.0381 l 0.130175,0.13335 q 0.27305,-0.20003 0.473075,-0.46673 0.200025,-0.26987 0.19685,-0.60325 0,-0.0222 0,-0.0413 0,-0.0222 -0.0032,-0.0444 0,-0.0572 -0.0381,-0.1016 -0.0381,-0.0476 -0.08572,-0.0857 -0.0064,-0.006 -0.01588,-0.01 -0.0063,-0.006 -0.0127,-0.0127 -0.02222,-0.006 -0.04445,-0.006 -0.01905,-0.003 -0.0381,-0.003 -0.117475,0 -0.206375,0.0635 -0.0889,0.0635 -0.17145,0.1397 -0.0095,0.0127 -0.02222,0.0286 -0.0095,0.0127 -0.01905,0.0286 -0.05398,0.0825 -0.1016,0.1778 -0.04763,0.0952 -0.04763,0.19368 0,0.0413 0.0127,0.0857 0.0127,0.0413 0.0381,0.0825 0.01588,0.019 0.03493,0.0222 0.01905,0.003 0.04127,0.003 0.0063,0 0.0095,0 0.0064,0 0.0127,0 0.0032,0 0.0095,0.003 0.0064,0 0.0095,0 l 0.04445,-0.0603 q 0.02222,0.01 0.02858,0.0254 0.0095,0.0127 0.0095,0.0317 0,0.01 -0.0032,0.0222 -0.0032,0.01 -0.0063,0.0222 -0.0032,0.006 -0.0064,0.0127 0,0.003 -0.0032,0.01 -0.0063,0.006 -0.01588,0.0127 -0.0063,0.006 -0.01905,0.0159 -0.01587,0.0127 -0.03492,0.0254 -0.01905,0.01 -0.04128,0.01 -0.0095,0 -0.01905,-0.003 -0.0095,-0.003 -0.01905,-0.01 -0.0508,-0.003 -0.0762,-0.0286 -0.02222,-0.0286 -0.04127,-0.0635 0,0 -0.0032,-0.003 0,-0.003 0,-0.006 -0.0063,-0.01 -0.01588,-0.019 -0.0063,-0.0127 -0.0127,-0.0222 0,-0.01 -0.0032,-0.0159 0,-0.01 0,-0.0159 0,-0.006 0,-0.0127 0,-0.01 0,-0.019 0,-0.20002 0.111125,-0.37782 0.1143,-0.1778 0.282575,-0.3048 0.0095,-0.006 0.01905,-0.01 0.0095,-0.006 0.01905,-0.0127 0.0635,-0.0318 0.130175,-0.0603 0.06985,-0.0286 0.149225,-0.0286 0.01905,0 0.0381,0.003 0.01905,0 0.04127,0.006 0.0032,0 0.0032,0.003 0.0032,0 0.0063,0.003 0.0635,0.0349 0.1143,0.0953 0.05398,0.0603 0.0635,0.13335 0,0.0127 0,0.0254 0,0.01 0,0.0222 0,0.37783 -0.231775,0.6604 -0.2286,0.2794 -0.51435,0.51753 0.04445,0.0349 0.09525,0.0667 0.05397,0.0286 0.1143,0.0286 0.01587,0 0.03175,-0.003 0.01905,-0.003 0.0381,-0.01 0.02858,0 0.0508,-0.0159 0.02222,-0.019 0.04445,-0.0413 0,0 0,0 0,0 0,0 0.0127,-0.0159 0.0254,-0.0286 0.01587,-0.0127 0.03175,-0.019 -0.0063,-0.003 -0.0095,-0.006 -0.0032,-0.006 -0.0032,-0.0127 0,-0.003 0,-0.003 0,-0.003 0,-0.006 0,-0.003 0,-0.006 0.0032,-0.006 0,-0.01 l 0.0381,0.0318 q 0.0127,-0.01 0.01587,-0.0191 0.0064,-0.0127 0.0095,-0.0254 0.0032,-0.003 0.0032,-0.003 0,-0.003 0,-0.006 0.0063,-0.019 0.0127,-0.0317 0.0095,-0.0159 0.0381,-0.019 -0.0064,0.0825 -0.0762,0.14605 -0.06668,0.0635 -0.149225,0.0984 -0.0127,0.006 -0.02858,0.0127 -0.0127,0.006 -0.02857,0.01 -0.02858,0.019 -0.05715,0.0254 -0.0254,0.006 -0.0508,0.006 -0.04127,0 -0.08255,-0.0159 -0.0381,-0.0159 -0.0762,-0.0381 -0.01588,-0.006 -0.03175,-0.0127 -0.0127,-0.01 -0.02857,-0.0159 -0.02222,-0.01 -0.04445,-0.0159 -0.02222,-0.006 -0.04445,-0.006 -0.0095,0 -0.02222,0.003 -0.0095,0 -0.02222,0.003 -0.02222,0.006 -0.04445,0.0222 -0.01905,0.0127 -0.04445,0.0381 -0.03175,0.006 -0.06667,0.0127 -0.03493,0.003 -0.06985,0.003 -0.10795,0 -0.206375,-0.0413 -0.09842,-0.0413 -0.161925,-0.1397 -0.0254,-0.0794 -0.04128,-0.15558 -0.0127,-0.0794 -0.0127,-0.15557 0.0032,-0.31433 0.1778,-0.5969 0.174625,-0.28575 0.403225,-0.4953 z m 0.6604,-0.33338 q 0.07937,-0.0191 0.168275,-0.0318 0.09207,-0.0127 0.18415,-0.0127 0.15875,0 0.301625,0.0572 0.142875,0.054 0.20955,0.2032 0.0032,0.0159 0.0032,0.0349 0.0032,0.0159 0.0032,0.0318 0,0.0572 -0.02222,0.10795 -0.01905,0.0508 -0.0762,0.0857 h -0.06032 q 0.03493,-0.0318 0.05398,-0.073 0.01905,-0.0444 0.01905,-0.0889 0,-0.0254 -0.0063,-0.0508 -0.0064,-0.0254 -0.01905,-0.0476 -0.06033,-0.127 -0.174625,-0.16827 -0.111125,-0.0445 -0.23495,-0.0635 -0.01588,0 -0.03175,-0.003 -0.01587,-0.003 -0.03175,-0.003 -0.01588,-0.003 -0.03175,-0.003 -0.01588,-0.003 -0.03175,-0.006 l -0.22225,0.0318 z m -0.07937,0.0254 q 0.0032,0 0.0063,0 0.0063,-0.003 0.0095,-0.006 0.0063,-0.003 0.0095,-0.003 0.0063,-0.003 0.0127,-0.003 0.0032,0 0.0032,0 0.0032,0 0.0063,0 0,0.006 -0.0063,0.01 -0.0063,0 -0.0127,0 0,0 -0.0032,0 0,0 -0.0032,0 -0.0032,0 -0.0063,0 0,0 0,0 -0.0032,0 -0.0095,0 -0.0032,0 -0.0063,0.003 z"
                  style="fill:#ffffff;fill-opacity:1;stroke:#ffffff;stroke-width:0.0860525;stroke-dasharray:none;stroke-opacity:1"
                  id="path409" />
            </g>
         </g>
      </g>
   </g>
</svg>